<svg width="135" height="282" viewBox="0 0 135 282" fill="none" xmlns="http://www.w3.org/2000/svg">
<g clip-path="url(#clip0_42_215)">
<path d="M46.0783 269.025H35.9873C26.927 207.161 17.7045 145.124 44.9571 121.969L77.0989 127.181L72.9877 154.359L55.0481 174.835L46.0783 269.025Z" fill="#5F5F5F"/>
<path d="M54.6235 281.804C53.832 282.011 53.0037 282.054 52.1932 281.933C51.3827 281.811 50.6083 281.527 49.9209 281.099L38.9424 279.688C36.5833 278.219 34.8792 275.964 34.1608 273.361C33.4424 270.758 33.7609 267.993 35.0544 265.602C39.7037 268.213 43.7821 267.849 47.3262 264.699C49.8304 269.534 53.9564 269.239 57.8969 273.312C58.4186 274.043 58.75 274.883 58.8633 275.762C58.9767 276.641 58.8687 277.533 58.5484 278.364C58.2282 279.195 57.7049 279.941 57.0222 280.539C56.3395 281.137 55.5171 281.571 54.6235 281.804V281.804Z" fill="#5F5F5F"/>
<path d="M74.6655 270.755H64.5744C55.5141 208.891 46.2916 146.854 73.5442 123.699L77.0988 125.862V151.38L83.6353 176.565L74.6655 270.755Z" fill="#5F5F5F"/>
<path d="M83.2107 283.534C82.4192 283.741 81.5909 283.784 80.7804 283.663C79.9699 283.541 79.1954 283.257 78.508 282.829L67.5295 281.418C65.1705 279.949 63.4664 277.694 62.748 275.091C62.0296 272.488 62.3481 269.723 63.6416 267.332C68.2908 269.943 72.3693 269.579 75.9134 266.429C78.4176 271.264 82.5436 270.969 86.484 275.042C87.0058 275.773 87.3371 276.613 87.4505 277.492C87.5638 278.371 87.4559 279.263 87.1356 280.094C86.8153 280.925 86.2921 281.671 85.6094 282.269C84.9266 282.867 84.1042 283.301 83.2107 283.534V283.534Z" fill="#5F5F5F"/>
<path d="M46.6028 61.4162C45.3604 61.8879 44.0917 62.2878 42.8031 62.6138C41.1009 63.0273 40.1398 63.2189 38.4969 62.5834C38.4392 62.5611 38.3842 62.539 38.3322 62.5173C35.2182 61.1977 32.5562 59.0042 30.6703 56.2039C28.7844 53.4036 27.756 50.1173 27.7101 46.745C27.7019 46.6293 27.7019 46.5077 27.7019 46.389C27.7003 45.8174 27.7277 45.2462 27.7841 44.6774C27.8561 43.9026 27.9804 43.1335 28.1563 42.3755L28.1398 42.3725C26.8097 41.0168 26.2979 39.1599 26.4676 37.294C26.5838 36.029 26.9866 34.8068 27.6456 33.7196C28.3046 32.6323 29.2026 31.7082 30.2719 31.0171C31.9478 29.9669 33.8373 29.3022 35.8033 29.0711C36.3311 29.0105 36.8621 28.9798 37.3934 28.9792H42.3856C43.4166 28.7386 44.4641 28.574 45.5194 28.4867H45.5276C55.5749 27.6562 63.4983 34.295 62.7593 42.3725C62.7539 42.3814 62.7457 42.3903 62.7402 42.3992C62.5267 42.7463 62.3379 43.0755 62.1709 43.39C62.0094 43.6836 61.8726 43.9654 61.7549 44.2324C60.838 46.297 65.1952 78.3295 63.6324 78.816C62.7429 79.0919 59.1575 55.2556 59.8007 59.7883C60.6109 65.4748 51.2315 59.7108 46.6028 61.4162Z" fill="#432F43"/>
<path d="M53.2321 62.1759L41.4632 62.9943L33.8566 70.3203L31.1926 70.7943C28.798 71.2198 26.6433 72.5064 25.1371 74.41C23.6309 76.3136 22.878 78.7019 23.021 81.122C23.569 90.3753 24.7959 104.201 27.3603 108.687C31.3366 115.642 34.6209 113.46 31.3366 115.642C35.5174 122.834 34.0044 120.683 35.5174 124.132C37.0305 127.581 32.4855 129.755 32.4855 129.755L34.6512 133.647L35.5174 130.187L73.2685 135.665C73.2685 135.665 69.1296 117.117 71.718 112.561C74.3065 108.004 80.5824 94.2316 74.9812 88.8425L69.5045 69.6336L60.084 66.8643L53.2321 62.1759Z" fill="black"/>
<path d="M124.474 138.302C123.687 138.277 122.914 138.082 122.209 137.73C121.505 137.378 120.885 136.878 120.394 136.264C119.902 135.65 119.551 134.937 119.363 134.174C119.175 133.411 119.156 132.617 119.306 131.846L96.8525 116.69L99.5317 109.469L126.068 127.665C127.351 128.014 128.461 128.82 129.188 129.93C129.915 131.04 130.208 132.378 130.011 133.689C129.815 135 129.143 136.194 128.122 137.044C127.102 137.894 125.804 138.342 124.474 138.302V138.302Z" fill="#FFB6B6"/>
<path d="M61.0541 68.7264L57.7914 70.014L75.1963 103.895L111.228 128.374L116.421 119.624L88.994 96.0122L78.0134 75.0227C76.468 72.0688 73.8793 69.7904 70.7472 68.6276C67.6151 67.4647 64.1617 67.4999 61.0541 68.7264Z" fill="black"/>
<path d="M46.7353 59.1962C53.2619 59.1962 58.5528 53.9228 58.5528 47.4177C58.5528 40.9127 53.2619 35.6393 46.7353 35.6393C40.2086 35.6393 34.9177 40.9127 34.9177 47.4177C34.9177 53.9228 40.2086 59.1962 46.7353 59.1962Z" fill="#FFB6B6"/>
<path d="M57.0117 42.4369C56.8147 42.5406 56.6204 42.6361 56.4233 42.7315C56.218 42.8297 56.0128 42.928 55.8048 43.0207C51.8499 44.8075 48.6285 45.0066 46.6743 42.4369C46.6209 41.085 46.3155 39.7548 45.7739 38.5142C45.8696 39.9006 45.503 41.2797 44.7311 42.4369H40.7954C36.742 45.1184 34.6619 47.5817 37.4755 56.3846C37.6589 56.9629 38.9151 77.5093 39.2737 79.0888C33.1375 76.7428 27.8442 51.8345 27.7101 45.2712C27.7019 45.1648 27.7019 45.053 27.7019 44.9439C27.7003 44.4181 27.7277 43.8926 27.784 43.3699C27.8562 42.6562 27.9806 41.9487 28.1562 41.253L28.1398 41.2503C27.5155 40.6554 27.0392 39.9234 26.7489 39.1126C26.4585 38.3018 26.3622 37.4346 26.4676 36.5802C27.4969 35.2368 28.7708 34.0986 30.2226 33.2249C31.5428 32.5877 32.9188 32.0727 34.3335 31.6863C34.3691 31.6782 34.3992 31.67 34.4348 31.6618C34.8672 31.5445 35.3106 31.4381 35.754 31.3454C36.6677 31.1544 37.5915 31.015 38.521 30.928C38.5894 30.9253 38.6551 30.9198 38.7153 30.9198C39.0871 30.92 39.452 31.0199 39.7718 31.209C39.7745 31.209 39.7745 31.2117 39.78 31.2117C40.0872 31.3947 40.3421 31.6534 40.5199 31.963C40.6977 32.2726 40.7926 32.6226 40.7954 32.9793H45.18C45.3414 32.9793 45.5029 32.9848 45.6644 32.993C51.7705 33.2358 56.6779 35.8382 56.9926 41.8204C57.0063 42.0278 57.0117 42.2296 57.0117 42.4369Z" fill="#432F43"/>
<path d="M31.0894 42.9105C35.3892 42.9105 38.8748 39.4363 38.8748 35.1507C38.8748 30.8651 35.3892 27.391 31.0894 27.391C26.7896 27.391 23.3039 30.8651 23.3039 35.1507C23.3039 39.4363 26.7896 42.9105 31.0894 42.9105Z" fill="#432F43"/>
<path d="M41.778 31.5616C40.8935 35.7555 36.5297 38.2639 32.355 37.2378C30.3502 36.7451 28.6239 35.4788 27.5559 33.7174C26.4878 31.9561 26.1656 29.8441 26.6599 27.8459C27.6894 23.685 32.756 24.8845 36.083 22.1697C40.7895 18.3292 42.9708 25.9058 41.778 31.5616Z" fill="#432F43"/>
<path d="M24.4798 148.304C31.1152 121.335 44.2627 98.1539 66.0366 79.992C66.8793 78.6103 68.2375 77.6182 69.8131 77.2333C71.3888 76.8484 73.0533 77.1022 74.4415 77.9389L126.204 109.22C127.59 110.06 128.585 111.413 128.971 112.984C129.358 114.554 129.103 116.213 128.263 117.597C119.953 145.27 107.505 169.284 86.7067 185.909C85.8641 187.291 84.5059 188.283 82.9303 188.668C81.3546 189.053 79.6901 188.799 78.3019 187.962L26.5397 156.681C25.1535 155.842 24.1581 154.488 23.7719 152.917C23.3857 151.347 23.6403 149.688 24.4798 148.304V148.304Z" fill="#F2F2F2"/>
<path opacity="0.2" d="M33.6801 157.393C32.2938 156.554 31.2984 155.2 30.9122 153.629C30.5261 152.059 30.7807 150.4 31.6202 149.016C38.2556 122.047 51.4031 98.8659 73.1769 80.704C73.7348 79.7995 74.5224 79.058 75.4601 78.5544L74.4415 77.9388C73.0533 77.1021 71.3888 76.8483 69.8132 77.2332C68.2375 77.6181 66.8794 78.6102 66.0366 79.9918C44.2628 98.1538 31.1153 121.335 24.4799 148.304C23.6404 149.688 23.3858 151.347 23.7719 152.917C24.1581 154.488 25.1535 155.841 26.5398 156.681L78.3018 187.962C79.2231 188.515 80.2746 188.815 81.3497 188.832C82.4247 188.848 83.4852 188.582 84.4236 188.059L33.6801 157.393Z" fill="black"/>
<path d="M94.3838 142.325L59.6387 121.459C59.0867 121.127 58.6896 120.59 58.5348 119.966C58.3799 119.342 58.4799 118.682 58.8127 118.131C59.1456 117.581 59.6841 117.184 60.31 117.029C60.9359 116.874 61.598 116.973 62.1509 117.304L96.896 138.17C97.4467 138.503 97.8424 139.04 97.9965 139.663C98.1505 140.287 98.0504 140.946 97.7179 141.496C97.3855 142.045 96.8479 142.442 96.2229 142.597C95.5979 142.753 94.9366 142.655 94.3838 142.325L94.3838 142.325Z" fill="white"/>
<path d="M74.1713 114.655L66.5274 110.065C65.9734 109.734 65.5738 109.198 65.4165 108.574C65.2591 107.95 65.3569 107.29 65.6883 106.737C66.0197 106.185 66.5575 105.787 67.1836 105.63C67.8096 105.473 68.4725 105.571 69.0265 105.901L69.0396 105.909L76.6835 110.499C77.2343 110.833 77.6302 111.37 77.7844 111.993C77.9385 112.617 77.8384 113.276 77.5059 113.826C77.1734 114.376 76.6357 114.772 76.0106 114.927C75.3855 115.083 74.7241 114.985 74.1713 114.655V114.655Z" fill="white"/>
<path d="M88.8616 151.46L54.1164 130.594C53.5638 130.262 53.1659 129.726 53.0102 129.102C52.8544 128.478 52.9536 127.818 53.2859 127.266C53.6181 126.715 54.1563 126.318 54.7822 126.162C55.4081 126.007 56.0704 126.105 56.6237 126.435L56.6286 126.438L91.3738 147.304C91.9244 147.638 92.3201 148.175 92.4742 148.798C92.6283 149.421 92.5281 150.08 92.1957 150.63C91.8632 151.18 91.3256 151.576 90.7006 151.732C90.0757 151.887 89.4143 151.79 88.8615 151.46L88.8616 151.46Z" fill="white"/>
<path d="M81.3031 201.251C93.2825 201.251 102.994 191.571 102.994 179.632C102.994 167.692 93.2825 158.013 81.3031 158.013C69.3237 158.013 59.6125 167.692 59.6125 179.632C59.6125 191.571 69.3237 201.251 81.3031 201.251Z" fill="white"/>
<path d="M78.3441 190.883C77.9695 190.883 77.6001 190.796 77.2651 190.629C76.9301 190.462 76.6387 190.22 76.414 189.921L70.4965 182.057C70.3061 181.804 70.1675 181.517 70.0886 181.211C70.0097 180.905 69.9922 180.586 70.0369 180.274C70.0816 179.961 70.1877 179.66 70.3492 179.388C70.5106 179.116 70.7243 178.878 70.9779 178.689C71.2315 178.499 71.5201 178.361 71.8273 178.283C72.1344 178.205 72.454 178.187 72.7678 178.232C73.0816 178.277 73.3835 178.383 73.6562 178.544C73.9288 178.705 74.167 178.919 74.3569 179.172L78.2284 184.316L88.1717 169.451C88.3475 169.188 88.5734 168.962 88.8367 168.786C89.1 168.611 89.3954 168.488 89.7061 168.426C90.0168 168.364 90.3367 168.364 90.6475 168.425C90.9584 168.487 91.254 168.608 91.5177 168.784C91.7813 168.959 92.0078 169.184 92.1841 169.446C92.3604 169.709 92.4831 170.003 92.5452 170.313C92.6074 170.623 92.6077 170.941 92.5462 171.251C92.4848 171.561 92.3626 171.856 92.1869 172.118L80.3518 189.812C80.1378 190.132 79.8498 190.396 79.5121 190.583C79.1745 190.769 78.797 190.872 78.4112 190.882C78.3888 190.883 78.3665 190.883 78.3441 190.883Z" fill="#349924"/>
<path d="M27.7074 148.59C26.934 148.274 26.2386 147.795 25.6694 147.185C25.1003 146.575 24.6708 145.849 24.4108 145.057C24.1508 144.265 24.0665 143.426 24.1636 142.599C24.2608 141.772 24.5371 140.975 24.9735 140.265L8.29962 116.904L13.6487 110.719L33.249 138.609C34.3943 139.43 35.1976 140.641 35.5067 142.013C35.8159 143.385 35.6093 144.822 34.9263 146.053C34.2432 147.283 33.1311 148.221 31.8006 148.688C30.4701 149.156 29.0137 149.121 27.7074 148.59H27.7074Z" fill="#FFB6B6"/>
<path d="M28.0905 74.5605C27.247 74.0658 26.2541 73.8869 25.2902 74.0561C24.3263 74.2252 23.4545 74.7313 22.8311 75.4833L0.302551 106.887L21.1807 136.442L29.3504 127.696L16.642 107.791L33.5315 91.7637C34.9195 88.7332 35.1315 85.2976 34.1266 82.1204C33.1217 78.9432 30.9712 76.2498 28.0905 74.5605V74.5605Z" fill="black"/>
</g>
<defs>
<clipPath id="clip0_42_215">
<rect width="135" height="282" fill="white"/>
</clipPath>
</defs>
</svg>
