<svg width="414" height="464" viewBox="0 0 414 464" fill="none" xmlns="http://www.w3.org/2000/svg">
<path d="M61.8306 370.523C-11.3471 364.436 -35.588 310.645 -107.486 297.02C-169.399 285.287 -213.079 322.602 -269.539 297.02C-325.999 271.437 -403.211 59.4707 -456.738 28.0067C-510.264 -3.45746 -521 -107 -521 -107H1009C1009 -107 1006.3 -12.7044 973.237 36.5071C892.822 156.202 713.76 21.3527 578.164 90.5097C502.257 129.224 497.18 217.856 409.964 222.516C381.807 224.021 366.641 213.969 338.438 213.516C210.536 211.459 189.203 381.12 61.8306 370.523Z" fill="#349924"/>
<g clip-path="url(#clip0_142_43)">
<path d="M187.078 451.025H176.987C167.927 389.161 158.704 327.124 185.957 303.969L218.099 309.181L213.988 336.359L196.048 356.835L187.078 451.025Z" fill="#5F5F5F"/>
<path d="M195.624 463.804C194.832 464.011 194.004 464.054 193.193 463.933C192.383 463.811 191.608 463.527 190.921 463.099L179.942 461.688C177.583 460.219 175.879 457.964 175.161 455.361C174.442 452.758 174.761 449.993 176.054 447.602C180.704 450.213 184.782 449.849 188.326 446.699C190.83 451.534 194.956 451.239 198.897 455.312C199.419 456.043 199.75 456.883 199.863 457.762C199.977 458.641 199.869 459.533 199.548 460.364C199.228 461.195 198.705 461.941 198.022 462.539C197.339 463.137 196.517 463.571 195.624 463.804Z" fill="#5F5F5F"/>
<path d="M215.665 452.755H205.574C196.514 390.891 187.292 328.854 214.544 305.699L218.099 307.862V333.38L224.635 358.565L215.665 452.755Z" fill="#5F5F5F"/>
<path d="M224.211 465.534C223.419 465.741 222.591 465.784 221.78 465.663C220.97 465.541 220.195 465.257 219.508 464.829L208.53 463.418C206.17 461.949 204.466 459.694 203.748 457.091C203.03 454.488 203.348 451.723 204.642 449.332C209.291 451.943 213.369 451.579 216.913 448.429C219.418 453.264 223.544 452.969 227.484 457.042C228.006 457.773 228.337 458.613 228.451 459.492C228.564 460.371 228.456 461.263 228.136 462.094C227.815 462.925 227.292 463.671 226.609 464.269C225.927 464.867 225.104 465.301 224.211 465.534Z" fill="#5F5F5F"/>
<path d="M187.603 243.416C186.36 243.888 185.092 244.288 183.803 244.614C182.101 245.027 181.14 245.219 179.497 244.583C179.439 244.561 179.384 244.539 179.332 244.517C176.218 243.198 173.556 241.004 171.67 238.204C169.784 235.404 168.756 232.117 168.71 228.745C168.702 228.629 168.702 228.508 168.702 228.389C168.7 227.817 168.728 227.246 168.784 226.677C168.856 225.903 168.98 225.134 169.156 224.375L169.14 224.372C167.81 223.017 167.298 221.16 167.468 219.294C167.584 218.029 167.987 216.807 168.646 215.72C169.305 214.632 170.203 213.708 171.272 213.017C172.948 211.967 174.837 211.302 176.803 211.071C177.331 211.01 177.862 210.98 178.393 210.979H183.386C184.417 210.739 185.464 210.574 186.519 210.487H186.528C196.575 209.656 204.498 216.295 203.759 224.372C203.754 224.381 203.746 224.39 203.74 224.399C203.527 224.746 203.338 225.076 203.171 225.39C203.009 225.684 202.873 225.965 202.755 226.232C201.838 228.297 206.195 260.33 204.632 260.816C203.743 261.092 200.158 237.256 200.801 241.788C201.611 247.475 192.231 241.711 187.603 243.416Z" fill="#432F43"/>
<path d="M194.232 244.176L182.463 244.994L174.857 252.32L172.193 252.794C169.798 253.22 167.643 254.506 166.137 256.41C164.631 258.314 163.878 260.702 164.021 263.122C164.569 272.375 165.796 286.201 168.36 290.687C172.337 297.642 175.621 295.46 172.337 297.642C176.517 304.834 175.004 302.683 176.517 306.132C178.03 309.581 173.485 311.755 173.485 311.755L175.651 315.647L176.517 312.187L214.269 317.665C214.269 317.665 210.13 299.117 212.718 294.561C215.306 290.004 221.582 276.232 215.981 270.842L210.505 251.634L201.084 248.864L194.232 244.176Z" fill="black"/>
<path d="M265.474 320.302C264.687 320.277 263.914 320.082 263.209 319.73C262.505 319.378 261.885 318.878 261.394 318.264C260.902 317.65 260.551 316.937 260.363 316.174C260.175 315.411 260.156 314.617 260.306 313.846L237.853 298.69L240.532 291.469L267.068 309.665C268.351 310.014 269.461 310.82 270.188 311.93C270.915 313.04 271.208 314.378 271.011 315.689C270.815 317 270.143 318.194 269.122 319.044C268.102 319.894 266.804 320.342 265.474 320.302V320.302Z" fill="#FFB6B6"/>
<path d="M202.054 250.726L198.791 252.014L216.196 285.895L252.227 310.374L257.421 301.624L229.994 278.012L219.013 257.023C217.468 254.069 214.879 251.79 211.747 250.628C208.615 249.465 205.162 249.5 202.054 250.726Z" fill="black"/>
<path d="M187.735 241.196C194.262 241.196 199.553 235.923 199.553 229.418C199.553 222.913 194.262 217.639 187.735 217.639C181.209 217.639 175.918 222.913 175.918 229.418C175.918 235.923 181.209 241.196 187.735 241.196Z" fill="#FFB6B6"/>
<path d="M198.012 224.437C197.815 224.541 197.62 224.636 197.423 224.732C197.218 224.83 197.013 224.928 196.805 225.021C192.85 226.807 189.629 227.007 187.674 224.437C187.621 223.085 187.316 221.755 186.774 220.514C186.87 221.901 186.503 223.28 185.731 224.437H181.795C177.742 227.118 175.662 229.582 178.476 238.385C178.659 238.963 179.915 259.509 180.274 261.089C174.137 258.743 168.844 233.834 168.71 227.271C168.702 227.165 168.702 227.053 168.702 226.944C168.7 226.418 168.728 225.893 168.784 225.37C168.856 224.656 168.981 223.949 169.156 223.253L169.14 223.25C168.516 222.655 168.039 221.923 167.749 221.113C167.459 220.302 167.362 219.435 167.468 218.58C168.497 217.237 169.771 216.099 171.223 215.225C172.543 214.588 173.919 214.073 175.334 213.686C175.369 213.678 175.399 213.67 175.435 213.662C175.867 213.544 176.311 213.438 176.754 213.345C177.668 213.154 178.592 213.015 179.521 212.928C179.589 212.925 179.655 212.92 179.715 212.92C180.087 212.92 180.452 213.02 180.772 213.209C180.775 213.209 180.775 213.212 180.78 213.212C181.087 213.395 181.342 213.653 181.52 213.963C181.698 214.273 181.793 214.623 181.795 214.979H186.18C186.341 214.979 186.503 214.985 186.664 214.993C192.771 215.236 197.678 217.838 197.993 223.82C198.006 224.028 198.012 224.23 198.012 224.437Z" fill="#432F43"/>
<path d="M172.089 224.91C176.389 224.91 179.875 221.436 179.875 217.151C179.875 212.865 176.389 209.391 172.089 209.391C167.79 209.391 164.304 212.865 164.304 217.151C164.304 221.436 167.79 224.91 172.089 224.91Z" fill="#432F43"/>
<path d="M182.778 213.562C181.894 217.756 177.53 220.264 173.355 219.238C171.35 218.745 169.624 217.479 168.556 215.717C167.488 213.956 167.166 211.844 167.66 209.846C168.689 205.685 173.756 206.885 177.083 204.17C181.79 200.329 183.971 207.906 182.778 213.562Z" fill="#432F43"/>
<path d="M165.48 330.304C172.115 303.335 185.263 280.154 207.037 261.992C207.879 260.61 209.237 259.618 210.813 259.233C212.389 258.848 214.053 259.102 215.441 259.939L267.204 291.22C268.59 292.06 269.585 293.413 269.971 294.984C270.358 296.554 270.103 298.213 269.263 299.597C260.953 327.271 248.505 351.284 227.707 367.909C226.864 369.291 225.506 370.283 223.93 370.668C222.355 371.053 220.69 370.799 219.302 369.962L167.54 338.681C166.153 337.842 165.158 336.488 164.772 334.917C164.386 333.347 164.64 331.688 165.48 330.304Z" fill="#F2F2F2"/>
<path opacity="0.2" d="M174.68 339.393C173.294 338.554 172.298 337.2 171.912 335.629C171.526 334.059 171.781 332.4 172.62 331.016C179.256 304.047 192.403 280.866 214.177 262.704C214.735 261.8 215.522 261.058 216.46 260.554L215.442 259.939C214.053 259.102 212.389 258.848 210.813 259.233C209.238 259.618 207.879 260.61 207.037 261.992C185.263 280.154 172.115 303.335 165.48 330.304C164.64 331.688 164.386 333.347 164.772 334.917C165.158 336.488 166.153 337.841 167.54 338.681L219.302 369.962C220.223 370.515 221.275 370.815 222.35 370.832C223.425 370.848 224.485 370.582 225.424 370.059L174.68 339.393Z" fill="black"/>
<path d="M235.384 324.325L200.639 303.459C200.087 303.127 199.69 302.59 199.535 301.966C199.38 301.342 199.48 300.682 199.813 300.131C200.146 299.581 200.684 299.184 201.31 299.029C201.936 298.874 202.598 298.973 203.151 299.304L237.896 320.17C238.447 320.503 238.842 321.04 238.996 321.663C239.151 322.287 239.05 322.946 238.718 323.496C238.385 324.045 237.848 324.442 237.223 324.597C236.598 324.753 235.937 324.655 235.384 324.325L235.384 324.325Z" fill="white"/>
<path d="M215.171 296.655L207.527 292.065C206.973 291.734 206.574 291.198 206.416 290.574C206.259 289.95 206.357 289.29 206.688 288.737C207.02 288.185 207.558 287.787 208.184 287.63C208.81 287.473 209.473 287.571 210.026 287.901L210.04 287.909L217.684 292.499C218.234 292.833 218.63 293.37 218.784 293.993C218.939 294.617 218.838 295.276 218.506 295.826C218.173 296.376 217.636 296.772 217.011 296.927C216.386 297.083 215.724 296.985 215.171 296.655Z" fill="white"/>
<path d="M229.862 333.46L195.116 312.594C194.564 312.262 194.166 311.726 194.01 311.102C193.854 310.478 193.954 309.818 194.286 309.266C194.618 308.715 195.156 308.318 195.782 308.162C196.408 308.007 197.07 308.105 197.624 308.435L197.629 308.438L232.374 329.304C232.924 329.638 233.32 330.175 233.474 330.798C233.628 331.421 233.528 332.08 233.196 332.63C232.863 333.18 232.326 333.576 231.701 333.732C231.076 333.887 230.414 333.79 229.862 333.46L229.862 333.46Z" fill="white"/>
<path d="M222.303 383.251C234.282 383.251 243.994 373.571 243.994 361.632C243.994 349.692 234.282 340.013 222.303 340.013C210.324 340.013 200.613 349.692 200.613 361.632C200.613 373.571 210.324 383.251 222.303 383.251Z" fill="white"/>
<path d="M219.344 372.883C218.97 372.883 218.6 372.796 218.265 372.629C217.93 372.462 217.639 372.22 217.414 371.921L211.497 364.057C211.306 363.804 211.167 363.517 211.089 363.211C211.01 362.905 210.992 362.586 211.037 362.274C211.082 361.961 211.188 361.66 211.349 361.388C211.511 361.116 211.724 360.878 211.978 360.689C212.232 360.499 212.52 360.361 212.827 360.283C213.134 360.205 213.454 360.187 213.768 360.232C214.082 360.277 214.383 360.383 214.656 360.544C214.929 360.705 215.167 360.919 215.357 361.172L219.228 366.316L229.172 351.451C229.347 351.188 229.573 350.962 229.837 350.786C230.1 350.611 230.395 350.488 230.706 350.426C231.017 350.364 231.337 350.364 231.648 350.425C231.958 350.487 232.254 350.608 232.518 350.784C232.781 350.959 233.008 351.184 233.184 351.446C233.36 351.709 233.483 352.003 233.545 352.313C233.607 352.623 233.608 352.941 233.546 353.251C233.485 353.561 233.363 353.856 233.187 354.118L221.352 371.812C221.138 372.132 220.85 372.396 220.512 372.583C220.174 372.769 219.797 372.872 219.411 372.882C219.389 372.883 219.366 372.883 219.344 372.883Z" fill="#349924"/>
<path d="M168.707 330.59C167.934 330.274 167.239 329.795 166.669 329.185C166.1 328.575 165.671 327.849 165.411 327.057C165.151 326.265 165.066 325.426 165.164 324.599C165.261 323.772 165.537 322.975 165.973 322.265L149.3 298.904L154.649 292.719L174.249 320.609C175.394 321.43 176.198 322.641 176.507 324.013C176.816 325.385 176.609 326.822 175.926 328.053C175.243 329.283 174.131 330.221 172.801 330.688C171.47 331.156 170.014 331.121 168.707 330.59H168.707Z" fill="#FFB6B6"/>
<path d="M169.091 256.56C168.247 256.066 167.254 255.887 166.29 256.056C165.326 256.225 164.454 256.731 163.831 257.483L141.303 288.887L162.181 318.442L170.35 309.696L157.642 289.791L174.532 273.764C175.919 270.733 176.131 267.298 175.127 264.12C174.122 260.943 171.971 258.25 169.091 256.56Z" fill="black"/>
</g>
<defs>
<clipPath id="clip0_142_43">
<rect width="135" height="282" fill="white" transform="translate(141 182)"/>
</clipPath>
</defs>
</svg>
