<svg width="28" height="28" viewBox="0 0 28 28" fill="none" xmlns="http://www.w3.org/2000/svg">
<circle cx="14" cy="14" r="14" fill="#4D922D"/>
<path d="M17.3555 9.05599L18.944 10.6437M18.377 7.65724L14.0818 11.9525C13.8598 12.1741 13.7085 12.4565 13.6468 12.764L13.25 14.75L15.236 14.3525C15.5435 14.291 15.8255 14.1402 16.0475 13.9182L20.3428 9.62299C20.4718 9.49392 20.5742 9.34069 20.6441 9.17205C20.7139 9.0034 20.7499 8.82265 20.7499 8.64012C20.7499 8.45758 20.7139 8.27683 20.6441 8.10819C20.5742 7.93955 20.4718 7.78632 20.3428 7.65724C20.2137 7.52817 20.0604 7.42578 19.8918 7.35593C19.7232 7.28608 19.5424 7.25012 19.3599 7.25012C19.1773 7.25012 18.9966 7.28608 18.8279 7.35593C18.6593 7.42578 18.5061 7.52817 18.377 7.65724V7.65724Z" stroke="white" stroke-linecap="round" stroke-linejoin="round"/>
<path d="M19.25 16.25V18.5C19.25 18.8978 19.092 19.2794 18.8107 19.5607C18.5294 19.842 18.1478 20 17.75 20H9.5C9.10218 20 8.72064 19.842 8.43934 19.5607C8.15804 19.2794 8 18.8978 8 18.5V10.25C8 9.85218 8.15804 9.47064 8.43934 9.18934C8.72064 8.90804 9.10218 8.75 9.5 8.75H11.75" stroke="white" stroke-linecap="round" stroke-linejoin="round"/>
</svg>
